<?xml version="1.0" standalone="no"?>
<!DOCTYPE svg PUBLIC "-//W3C//DTD SVG 20010904//EN"
 "http://www.w3.org/TR/2001/REC-SVG-20010904/DTD/svg10.dtd">
<svg version="1.0" xmlns="http://www.w3.org/2000/svg"
 width="512.000000pt" height="512.000000pt" viewBox="0 0 512.000000 512.000000"
 preserveAspectRatio="xMidYMid meet">

<g transform="translate(0.000000,512.000000) scale(0.100000,-0.100000)"
fill="#8395CD" stroke="none">
<path d="M1085 5108 c-272 -30 -522 -152 -721 -352 -205 -205 -322 -449 -354
-738 -14 -135 -14 -2784 1 -2915 33 -294 147 -533 353 -739 209 -210 451 -324
754 -354 74 -8 548 -10 1527 -8 1296 4 1426 5 1490 21 321 78 563 233 745 478
98 132 171 293 217 484 16 64 17 193 21 1490 2 979 0 1453 -8 1527 -30 303
-144 545 -354 754 -206 206 -445 320 -739 353 -119 14 -2813 13 -2932 -1z
m1523 -1028 c361 -28 602 -123 772 -306 143 -153 207 -323 217 -574 19 -505
-218 -870 -663 -1020 -168 -57 -346 -80 -620 -80 l-174 0 0 -495 0 -496 -25
-23 c-15 -14 -49 -28 -85 -35 -84 -17 -340 -15 -415 3 -106 25 -95 -139 -95
1461 0 1032 3 1411 12 1436 24 71 68 111 143 130 46 11 783 10 933 -1z"/>
<path d="M2140 3095 l0 -517 208 5 c138 3 224 10 257 19 223 65 344 247 345
516 0 148 -46 279 -128 365 -34 36 -152 94 -217 107 -27 6 -143 13 -257 17
l-208 6 0 -518z"/>
</g>
</svg>
